<?xml version="1.0" encoding="UTF-8"?>
<!DOCTYPE svg PUBLIC "-//W3C//DTD SVG 1.1//EN" "http://www.w3.org/Graphics/SVG/1.1/DTD/svg11.dtd">
<!-- Creator: CorelDRAW -->
<svg xmlns="http://www.w3.org/2000/svg" xml:space="preserve" width="210mm" height="297mm" version="1.1" style="shape-rendering:geometricPrecision; text-rendering:geometricPrecision; image-rendering:optimizeQuality; fill-rule:evenodd; clip-rule:evenodd"
viewBox="0 0 21000 29700"
 xmlns:xlink="http://www.w3.org/1999/xlink">
 <defs>
  <style type="text/css">
   <![CDATA[
    .fil0 {fill:#3C893F}
    .fil1 {fill:#1C4596}
    .fil3 {fill:#3C893F;fill-rule:nonzero}
    .fil2 {fill:#1C4596;fill-rule:nonzero}
   ]]>
  </style>
 </defs>
 <g id="Layer_x0020_1">
  <metadata id="CorelCorpID_0Corel-Layer"/>
  <g id="BPJS_x0020_Kesehatan.cdr">
   <path class="fil0" d="M9519 13156l623 -560 -690 0 0 -769 325 0 -608 -551 -584 542 298 0 0 924c2,286 50,415 298,418l338 -4z"/>
   <path class="fil0" d="M11399 11280l-623 560 690 0 0 769 -325 0 608 551 583 -542 -298 0 0 -924c-2,-286 -49,-415 -298,-418l-337 4z"/>
   <path class="fil0" d="M11397 13158l-560 -623 0 690 -769 0 0 -325 -552 608 543 583 0 -298 924 0c286,-2 415,-49 418,-298l-4 -337z"/>
   <path class="fil0" d="M9521 11278l559 623 0 -690 770 0 0 325 551 -608 -542 -584 0 298 -924 0c-286,2 -416,50 -419,298l5 338z"/>
   <path class="fil1" d="M7036 10502c-78,126 -145,126 -204,661 -60,534 280,1097 280,1097 0,0 -35,-258 127,-471 163,-213 487,-529 639,-742 152,-213 191,-485 191,-485l0 0c-140,64 -295,99 -459,99 -210,0 -406,-58 -574,-159z"/>
   <path class="fil1" d="M8395 9562c0,435 -352,788 -788,788 -435,0 -788,-353 -788,-788 0,-435 353,-788 788,-788 436,0 788,353 788,788z"/>
   <path class="fil1" d="M8504 8899c0,0 605,-437 1213,-522 608,-85 1480,60 1480,60 0,0 -420,30 -682,183 -261,154 -470,389 -780,669 -310,279 -529,462 -748,565 -141,67 -262,83 -330,86 43,-118 66,-245 66,-378 0,-248 -82,-478 -219,-663l0 0z"/>
   <path class="fil0" d="M8778 15678c126,79 127,145 661,204 534,60 1097,-279 1097,-279 0,0 -258,35 -471,-128 -213,-163 -529,-486 -742,-638 -212,-152 -485,-192 -485,-192l0 0c64,140 99,295 99,459 0,210 -58,406 -159,574z"/>
   <path class="fil0" d="M7838 14319c436,0 788,353 788,788 0,435 -352,788 -788,788 -435,0 -788,-353 -788,-788 0,-435 353,-788 788,-788z"/>
   <path class="fil0" d="M7175 14210c0,0 -437,-605 -522,-1213 -85,-608 61,-1480 61,-1480 0,0 29,421 183,682 153,261 388,470 668,780 279,310 462,529 565,748 67,141 83,262 86,330 -118,-42 -245,-65 -378,-65 -248,0 -477,81 -663,218l0 0z"/>
   <path class="fil1" d="M13881 13934c79,-126 145,-127 205,-661 59,-534 -280,-1097 -280,-1097 0,0 35,258 -128,471 -162,213 -486,529 -638,742 -152,212 -192,485 -192,485l0 0c140,-64 296,-99 459,-99 210,0 407,58 574,159z"/>
   <path class="fil1" d="M12522 14874c0,-436 353,-789 788,-789 436,0 788,353 788,789 0,435 -352,788 -788,788 -435,0 -788,-353 -788,-788z"/>
   <path class="fil1" d="M12414 15537c0,0 -605,437 -1213,522 -608,85 -1481,-61 -1481,-61 0,0 421,-29 682,-183 262,-153 470,-388 780,-668 310,-279 529,-462 748,-565 141,-67 262,-83 331,-86 -43,118 -66,245 -66,378 0,248 81,477 219,663l0 0z"/>
   <path class="fil0" d="M12139 8758c-125,-79 -126,-145 -660,-205 -534,-59 -1098,280 -1098,280 0,0 259,-35 472,128 212,162 528,486 741,638 213,152 485,192 485,192l0 0c-63,-140 -98,-296 -98,-459 0,-210 58,-406 158,-574z"/>
   <path class="fil0" d="M13079 10117c-435,0 -788,-353 -788,-788 0,-435 353,-788 788,-788 435,0 788,353 788,788 0,435 -353,788 -788,788z"/>
   <path class="fil0" d="M13743 10226c0,0 437,605 522,1213 85,608 -61,1480 -61,1480 0,0 -29,-421 -183,-682 -153,-262 -389,-470 -668,-780 -280,-310 -462,-529 -566,-748 -66,-141 -82,-262 -85,-330 118,42 245,65 377,65 249,0 478,-81 663,-218l1 0z"/>
   <path class="fil2" d="M1042 19597l0 -2332 761 0c101,0 187,12 257,38 70,25 127,61 171,108 43,47 75,102 94,167 19,65 29,136 29,213 0,98 -8,182 -23,252 -15,70 -38,128 -68,175 -31,46 -68,83 -113,109 -45,27 -95,46 -152,58 130,6 233,48 309,126 76,79 114,196 114,352 0,256 -50,442 -151,559 -100,116 -261,175 -482,175l-746 0zm651 -201c118,0 205,-36 261,-107 55,-71 83,-186 83,-344 0,-83 -4,-153 -13,-210 -10,-57 -25,-103 -46,-138 -21,-36 -50,-61 -87,-76 -36,-16 -81,-23 -134,-23l-338 0 0 898 274 0zm37 -1081c95,0 164,-35 207,-105 42,-70 64,-175 64,-315 0,-156 -20,-265 -60,-327 -39,-62 -108,-93 -205,-93l-317 0 0 840 311 0zm1510 171c61,0 112,-9 153,-26 42,-18 77,-47 104,-87 27,-41 47,-94 59,-161 13,-67 19,-151 19,-250 0,-97 -5,-178 -16,-241 -10,-62 -25,-112 -47,-149 -21,-36 -49,-62 -84,-76 -34,-14 -77,-21 -127,-21l-299 0 0 1011 238 0zm-615 1111l0 -2332 730 0c110,0 203,12 280,36 78,25 140,61 186,110 47,49 81,110 102,184 21,74 32,161 32,260 0,159 -11,291 -33,398 -23,106 -60,192 -113,257 -53,65 -122,111 -209,140 -86,28 -193,43 -321,43l-277 0 0 692c2,168 -152,208 -377,212zm1884 -2332c129,-11 366,64 375,241l0 1552c0,387 -211,581 -634,581 -207,0 -354,-44 -443,-134 -39,-39 -69,-86 -91,-138 -39,-103 114,-181 194,-66 9,21 30,37 44,54 45,55 123,83 232,83 116,0 199,-28 249,-83 49,-56 74,-148 74,-276l0 -1814zm754 1938c26,46 60,85 102,117 69,52 155,79 258,79 49,0 96,-9 140,-26 45,-17 84,-42 118,-73 33,-32 59,-70 79,-116 19,-46 29,-97 29,-154 0,-50 -7,-95 -22,-134 -14,-38 -33,-73 -58,-103 -24,-30 -53,-58 -86,-84 -34,-25 -70,-51 -108,-77 -88,-57 -168,-112 -242,-166 -74,-54 -139,-111 -194,-172 -54,-61 -98,-129 -129,-203 -31,-74 -47,-162 -47,-263 0,-87 13,-167 41,-241 27,-73 68,-136 122,-190 53,-54 119,-96 196,-126 77,-31 165,-46 265,-46 130,0 241,30 335,90 91,58 153,139 186,243 33,67 -140,151 -192,48 -21,-36 -48,-66 -81,-90 -56,-42 -122,-62 -199,-62 -108,0 -192,29 -252,88 -59,59 -89,142 -89,249 0,90 22,164 68,223 46,59 103,112 171,159 68,48 142,94 222,137 80,44 154,95 222,153 68,58 125,127 170,208 46,81 69,183 69,305 0,95 -16,183 -49,264 -32,82 -79,152 -140,211 -61,58 -135,105 -224,138 -88,33 -188,50 -299,50 -144,0 -271,-35 -379,-106 -86,-57 -154,-132 -204,-226 -62,-114 142,-212 201,-104z"/>
   <path class="fil3" d="M19517 19444l0 -1218c0,-96 -21,-161 -63,-195 -41,-35 -107,-52 -196,-52 -73,0 -141,17 -204,52 -63,34 -109,73 -137,115l0 1294c0,119 -224,187 -359,198l0 -2019c190,6 355,137 359,206l0 124c47,-61 116,-115 207,-162 91,-47 198,-70 319,-70 147,0 255,39 326,117 71,78 107,200 107,364l0 1440c-192,11 -354,-57 -359,-194z"/>
   <path class="fil3" d="M16836 19577c-26,14 -52,25 -79,33 -60,20 -139,29 -236,29 -154,0 -275,-47 -362,-141 -87,-95 -131,-226 -131,-395l0 -1110 0 -86 -143 0 0 -186 143 0 0 -371c282,-2 352,103 356,168l0 200 365 0 0 189 -365 0 0 83 0 1113c0,104 21,185 62,242 42,58 109,87 200,87 59,0 106,-6 140,-20 124,-31 161,123 50,165z"/>
   <path class="fil3" d="M15392 19464l0 -93c-41,84 -102,149 -183,197 -81,47 -177,71 -286,71 -167,0 -291,-46 -373,-138 -82,-93 -123,-221 -123,-385 0,-165 32,-291 97,-378 65,-87 166,-154 301,-201 45,-16 92,-29 142,-38 50,-9 98,-18 146,-27 48,-9 94,-20 137,-34 44,-13 81,-31 111,-53l0 -192c0,-99 -20,-174 -61,-225 -40,-51 -117,-76 -231,-76 -85,0 -159,19 -221,56 -39,24 -74,57 -104,100 -111,105 -250,-49 -175,-131 52,-74 117,-129 194,-167 103,-49 214,-74 333,-74 86,0 166,6 242,20 77,13 142,38 198,76 56,37 100,90 133,158 32,68 48,157 48,266l0 1049 0 69 0 2 0 319c-190,7 -322,-27 -325,-180l0 9zm-28 -912c-40,23 -88,41 -143,54 -55,13 -107,28 -158,44 -102,32 -175,82 -219,149 -45,67 -67,154 -67,262 0,122 22,210 65,266 44,56 112,84 206,84 71,0 134,-18 188,-55 55,-36 98,-87 128,-152l0 -652z"/>
   <path class="fil3" d="M13885 19445l0 -1219c0,-95 -21,-160 -63,-195 -41,-34 -107,-51 -196,-51 -73,0 -141,17 -204,51 -63,35 -108,74 -137,116l0 1305c-4,118 -178,185 -359,187l-2 -2372c141,-11 352,83 361,195l0 487c47,-61 116,-114 207,-161 91,-47 198,-70 320,-70 146,0 254,39 325,117 72,78 107,199 107,364l0 1440c-135,5 -359,-38 -359,-194z"/>
   <path class="fil3" d="M10217 19309c14,14 29,26 45,38 67,49 147,73 241,73 97,0 170,-25 217,-76 48,-51 72,-116 72,-195 0,-55 -8,-101 -24,-138 -17,-38 -37,-70 -63,-96 -25,-27 -55,-48 -88,-66 -34,-17 -68,-33 -102,-47 -77,-30 -148,-63 -212,-99 -64,-35 -119,-75 -166,-120 -46,-45 -83,-96 -109,-154 -26,-58 -40,-125 -40,-202 0,-92 15,-172 44,-241 30,-69 71,-126 124,-172 53,-45 115,-80 187,-103 72,-24 151,-35 236,-35 103,0 200,19 291,56 64,27 116,70 156,129 73,105 -82,219 -188,110 -15,-13 -30,-25 -48,-35 -53,-31 -115,-47 -184,-47 -40,0 -79,5 -117,15 -37,10 -70,26 -99,47 -28,22 -51,48 -67,81 -16,32 -24,72 -24,119 0,77 21,137 64,179 42,43 96,78 160,107 63,28 132,55 207,80 74,26 143,60 207,102 63,43 117,99 159,168 43,69 64,162 64,280 0,89 -15,169 -47,240 -31,71 -74,131 -129,180 -55,49 -120,86 -197,113 -76,26 -157,39 -245,39 -146,0 -271,-29 -374,-88 -52,-30 -98,-68 -136,-113 -111,-123 7,-271 185,-129z"/>
   <path class="fil3" d="M9447 18460c-17,-231 -27,-612 -333,-612 -308,0 -345,398 -348,608l681 4zm219 863c-16,43 -38,84 -65,122 -27,38 -61,72 -104,101 -43,29 -97,52 -161,68 -64,17 -143,25 -236,25 -246,0 -421,-78 -546,-212 -243,-261 -272,-1202 -27,-1517 128,-165 289,-274 500,-274 630,0 685,472 714,994l-1002 0c-12,376 -52,794 411,798 101,1 178,-20 230,-59 51,-39 75,-76 105,-111 93,-103 216,-12 181,65z"/>
   <path class="fil3" d="M7850 19433l-330 -1045 -235 316 0 752c2,135 -255,183 -377,183l0 -2332c112,-5 375,39 377,232l0 833 761 -1065c82,-91 272,-31 245,23l-513 714 542 1595c-130,1 -412,15 -470,-206z"/>
   <path class="fil3" d="M12461 18460c-18,-231 -28,-612 -334,-612 -307,0 -344,398 -347,608l681 4zm218 863c-16,43 -37,84 -64,122 -27,38 -62,72 -105,101 -43,29 -96,52 -160,68 -65,17 -143,25 -237,25 -246,0 -420,-78 -546,-212 -242,-261 -271,-1202 -27,-1517 128,-165 290,-274 500,-274 631,0 685,472 715,994l-1002 0c-13,376 -52,794 411,798 101,1 178,-20 229,-59 52,-39 75,-76 106,-111 92,-103 215,-12 180,65z"/>
   <path class="fil3" d="M17936 19464l0 -93c-41,84 -102,149 -183,197 -81,47 -177,71 -286,71 -167,0 -291,-46 -373,-138 -82,-93 -123,-221 -123,-385 0,-165 32,-291 97,-378 65,-87 165,-154 301,-201 45,-16 92,-29 142,-38 50,-9 98,-18 146,-27 48,-9 93,-20 137,-34 44,-13 81,-31 111,-53l0 -192c0,-99 -20,-174 -61,-225 -40,-51 -117,-76 -231,-76 -85,0 -159,19 -221,56 -39,24 -74,57 -104,100 -111,105 -250,-49 -176,-131 53,-74 118,-129 195,-167 102,-49 214,-74 333,-74 86,0 166,6 242,20 76,13 142,38 198,76 56,37 100,90 133,158 32,68 48,157 48,266l0 1049 0 69 0 2 0 319c-190,7 -322,-27 -325,-180l0 9zm-28 -912c-40,23 -88,41 -143,54 -55,13 -107,28 -158,44 -102,32 -175,82 -219,149 -45,67 -67,154 -67,262 0,122 21,210 65,266 44,56 112,84 206,84 71,0 134,-18 188,-55 55,-36 98,-87 128,-152l0 -652z"/>
   <path class="fil2" d="M975 21112l0 -811 305 0c62,0 111,8 149,24 37,17 67,42 88,76 21,34 32,70 32,107 0,35 -10,68 -28,98 -19,31 -47,56 -85,74 49,15 86,39 113,74 26,35 39,76 39,123 0,38 -8,73 -24,106 -16,33 -36,58 -59,75 -24,18 -54,31 -89,40 -36,10 -79,14 -131,14l-310 0zm108 -470l175 0c48,0 82,-3 103,-10 27,-8 48,-21 62,-40 13,-19 20,-43 20,-71 0,-27 -6,-51 -19,-71 -13,-21 -31,-35 -55,-43 -24,-7 -66,-11 -124,-11l-162 0 0 246zm0 375l202 0c35,0 59,-1 73,-4 25,-4 46,-12 62,-22 17,-11 31,-26 41,-45 11,-20 16,-43 16,-69 0,-30 -7,-57 -23,-79 -16,-23 -37,-38 -65,-47 -27,-9 -67,-14 -118,-14l-188 0 0 280zm1024 21c-37,32 -72,54 -107,67 -34,13 -70,20 -110,20 -64,0 -114,-16 -149,-48 -34,-31 -52,-71 -52,-120 0,-29 7,-55 20,-79 13,-24 30,-43 51,-57 22,-14 46,-25 72,-33 20,-5 49,-10 89,-15 80,-9 140,-20 178,-34 0,-13 0,-22 0,-26 0,-40 -9,-68 -28,-85 -25,-23 -63,-34 -114,-34 -47,0 -81,9 -104,25 -22,16 -39,46 -49,87l-98 -13c9,-42 24,-76 44,-101 20,-26 50,-46 88,-60 39,-13 83,-20 134,-20 50,0 91,5 123,17 31,12 54,27 69,45 15,18 25,41 31,68 3,17 5,47 5,91l0 133c0,92 2,150 6,175 4,25 13,48 25,71l-104 0c-10,-21 -17,-45 -20,-74zm-8 -220c-36,14 -90,27 -163,37 -41,6 -70,12 -87,20 -17,7 -30,18 -39,32 -10,14 -14,30 -14,47 0,26 10,48 30,66 20,17 50,26 88,26 39,0 73,-8 103,-25 30,-16 52,-39 66,-68 11,-23 16,-56 16,-99l0 -36zm634 294l0 -75c-37,58 -92,88 -164,88 -47,0 -90,-13 -129,-39 -40,-26 -70,-62 -92,-108 -21,-46 -32,-99 -32,-159 0,-59 10,-112 29,-160 20,-47 49,-84 88,-109 39,-26 83,-38 131,-38 36,0 67,7 95,22 27,15 50,35 67,59l0 -292 100 0 0 811 -93 0zm-315 -293c0,75 16,131 48,168 31,37 69,56 112,56 44,0 81,-18 111,-53 31,-36 46,-90 46,-163 0,-80 -15,-139 -46,-176 -31,-38 -70,-57 -115,-57 -45,0 -82,18 -112,54 -29,36 -44,93 -44,171zm950 219c-37,32 -73,54 -107,67 -35,13 -71,20 -110,20 -65,0 -115,-16 -149,-48 -35,-31 -53,-71 -53,-120 0,-29 7,-55 20,-79 13,-24 31,-43 52,-57 21,-14 45,-25 71,-33 20,-5 50,-10 89,-15 81,-9 140,-20 178,-34 0,-13 1,-22 1,-26 0,-40 -10,-68 -29,-85 -25,-23 -63,-34 -113,-34 -47,0 -82,9 -104,25 -23,16 -39,46 -50,87l-98 -13c9,-42 24,-76 44,-101 21,-26 50,-46 89,-60 38,-13 83,-20 133,-20 51,0 92,5 123,17 31,12 55,27 69,45 15,18 25,41 32,68 3,17 4,47 4,91l0 133c0,92 3,150 7,175 4,25 12,48 24,71l-104 0c-10,-21 -17,-45 -19,-74zm-8 -220c-37,14 -91,27 -164,37 -41,6 -70,12 -87,20 -17,7 -30,18 -39,32 -9,14 -14,30 -14,47 0,26 10,48 30,66 20,17 50,26 89,26 38,0 72,-8 102,-25 30,-16 52,-39 66,-68 11,-23 16,-56 16,-99l1 -36zm254 294l0 -588 89 0 0 84c43,-64 105,-96 187,-96 35,0 68,6 97,19 30,12 52,29 67,50 15,20 25,45 31,73 4,19 6,51 6,97l0 361 -100 0 0 -357c0,-41 -4,-71 -12,-91 -7,-20 -21,-36 -41,-48 -19,-12 -43,-18 -69,-18 -42,0 -79,13 -110,40 -30,27 -46,78 -46,153l0 321 -99 0zm957 0l0 -811 306 0c54,0 95,3 124,8 40,6 73,19 100,37 27,19 49,45 65,79 17,33 25,70 25,110 0,69 -22,127 -66,175 -44,47 -124,71 -238,71l-208 0 0 331 -108 0zm108 -426l209 0c70,0 119,-13 148,-39 29,-26 44,-62 44,-109 0,-34 -9,-63 -26,-87 -17,-24 -40,-40 -68,-48 -18,-5 -51,-7 -100,-7l-207 0 0 290zm1036 236l103 13c-16,60 -46,107 -90,140 -43,33 -99,50 -167,50 -86,0 -154,-27 -204,-80 -51,-52 -76,-127 -76,-222 0,-99 26,-175 76,-230 51,-54 117,-81 198,-81 79,0 143,26 192,80 50,53 75,128 75,225 0,6 0,15 -1,27l-438 0c4,64 22,113 55,148 33,34 74,51 123,51 36,0 67,-10 93,-29 26,-19 46,-50 61,-92zm-326 -160l327 0c-4,-49 -17,-86 -37,-111 -32,-39 -73,-58 -123,-58 -46,0 -84,15 -115,46 -31,31 -49,72 -52,123zm555 350l0 -588 90 0 0 84c43,-64 105,-96 187,-96 35,0 68,6 97,19 30,12 52,29 67,50 15,20 25,45 31,73 3,19 5,51 5,97l0 361 -99 0 0 -357c0,-41 -4,-71 -12,-91 -8,-20 -21,-36 -41,-48 -20,-12 -43,-18 -69,-18 -43,0 -79,13 -110,40 -31,27 -46,78 -46,153l0 321 -100 0zm626 226l-11 -92c21,6 40,9 57,9 22,0 40,-4 53,-11 13,-8 24,-18 33,-31 6,-10 16,-35 30,-75 2,-5 5,-13 9,-24l-223 -590 106 0 123 340c16,42 30,88 43,135 11,-44 25,-89 41,-132l125 -343 100 0 -222 598c-24,65 -43,109 -57,133 -17,33 -38,57 -61,72 -23,15 -50,23 -82,23 -19,0 -40,-4 -64,-12zm972 -416l103 13c-16,60 -46,107 -90,140 -44,33 -99,50 -168,50 -85,0 -153,-27 -204,-80 -50,-52 -75,-127 -75,-222 0,-99 25,-175 76,-230 51,-54 117,-81 198,-81 78,0 142,26 192,80 50,53 75,128 75,225 0,6 -1,15 -1,27l-438 0c4,64 22,113 55,148 33,34 73,51 122,51 37,0 68,-10 94,-29 26,-19 46,-50 61,-92zm-326 -160l327 0c-4,-49 -17,-86 -37,-111 -32,-39 -73,-58 -124,-58 -45,0 -84,15 -115,46 -31,31 -48,72 -51,123zm553 350l0 -811 100 0 0 811 -100 0zm655 -190l103 13c-16,60 -46,107 -90,140 -44,33 -100,50 -168,50 -85,0 -153,-27 -204,-80 -50,-52 -75,-127 -75,-222 0,-99 25,-175 76,-230 51,-54 117,-81 198,-81 78,0 142,26 192,80 49,53 74,128 74,225 0,6 0,15 0,27l-438 0c4,64 22,113 55,148 32,34 73,51 122,51 37,0 68,-10 93,-29 26,-19 47,-50 62,-92zm-326 -160l327 0c-4,-49 -17,-86 -38,-111 -31,-39 -72,-58 -123,-58 -45,0 -84,15 -115,46 -31,31 -48,72 -51,123zm555 350l0 -588 89 0 0 84c43,-64 106,-96 187,-96 36,0 68,6 98,19 29,12 52,29 66,50 15,20 26,45 31,73 4,19 6,51 6,97l0 361 -100 0 0 -357c0,-41 -4,-71 -11,-91 -8,-20 -22,-36 -41,-48 -20,-12 -43,-18 -70,-18 -42,0 -79,13 -109,40 -31,27 -46,78 -46,153l0 321 -100 0zm612 49l96 13c4,30 15,52 34,66 25,18 58,27 101,27 46,0 82,-9 107,-27 25,-19 42,-44 51,-78 5,-20 8,-62 7,-127 -43,51 -98,77 -162,77 -81,0 -144,-29 -188,-87 -45,-59 -67,-128 -67,-210 0,-56 11,-108 31,-155 20,-47 49,-84 88,-110 38,-26 84,-38 136,-38 69,0 126,28 171,85l0 -73 92 0 0 508c0,91 -9,156 -28,194 -18,38 -48,69 -88,91 -41,22 -90,33 -149,33 -70,0 -127,-16 -170,-47 -43,-32 -64,-79 -62,-142zm81 -353c0,77 16,133 46,168 31,36 69,53 115,53 46,0 85,-17 116,-52 31,-35 46,-91 46,-166 0,-71 -16,-126 -48,-162 -32,-37 -70,-55 -115,-55 -45,0 -82,18 -113,54 -31,36 -47,89 -47,160zm549 353l96 13c4,30 15,52 34,66 25,18 59,27 101,27 46,0 82,-9 107,-27 25,-19 42,-44 51,-78 5,-20 8,-62 7,-127 -43,51 -97,77 -162,77 -81,0 -144,-29 -188,-87 -44,-59 -67,-128 -67,-210 0,-56 11,-108 31,-155 20,-47 50,-84 88,-110 39,-26 84,-38 136,-38 69,0 127,28 171,85l0 -73 92 0 0 508c0,91 -9,156 -28,194 -18,38 -48,69 -88,91 -40,22 -90,33 -149,33 -70,0 -127,-16 -170,-47 -43,-32 -64,-79 -62,-142zm81 -353c0,77 16,133 46,168 31,36 69,53 116,53 45,0 84,-17 115,-52 31,-35 46,-91 46,-166 0,-71 -16,-126 -48,-162 -32,-37 -70,-55 -115,-55 -44,0 -82,18 -113,54 -31,36 -47,89 -47,160zm951 230c-37,32 -72,54 -106,67 -35,13 -71,20 -111,20 -64,0 -114,-16 -149,-48 -34,-31 -52,-71 -52,-120 0,-29 7,-55 20,-79 13,-24 30,-43 52,-57 21,-14 45,-25 71,-33 20,-5 50,-10 89,-15 80,-9 140,-20 178,-34 0,-13 0,-22 0,-26 0,-40 -9,-68 -28,-85 -25,-23 -63,-34 -114,-34 -47,0 -81,9 -104,25 -22,16 -38,46 -49,87l-98 -13c9,-42 24,-76 44,-101 21,-26 50,-46 88,-60 39,-13 84,-20 134,-20 50,0 91,5 123,17 31,12 55,27 69,45 15,18 25,41 31,68 4,17 5,47 5,91l0 133c0,92 2,150 7,175 4,25 12,48 24,71l-104 0c-10,-21 -17,-45 -20,-74zm-8 -220c-36,14 -90,27 -163,37 -41,6 -70,12 -87,20 -17,7 -30,18 -39,32 -9,14 -14,30 -14,47 0,26 10,48 30,66 20,17 50,26 88,26 39,0 73,-8 103,-25 30,-16 52,-39 66,-68 11,-23 16,-56 16,-99l0 -36zm253 294l0 -588 90 0 0 90c23,-42 44,-69 63,-82 20,-14 41,-20 64,-20 34,0 68,10 103,31l-36 92c-24,-14 -48,-20 -72,-20 -22,0 -41,6 -59,19 -17,13 -29,32 -36,55 -12,35 -17,74 -17,116l0 307 -100 0zm763 -74c-37,32 -73,54 -107,67 -34,13 -71,20 -110,20 -65,0 -114,-16 -149,-48 -35,-31 -52,-71 -52,-120 0,-29 6,-55 19,-79 14,-24 31,-43 52,-57 21,-14 45,-25 72,-33 19,-5 49,-10 88,-15 81,-9 140,-20 178,-34 1,-13 1,-22 1,-26 0,-40 -10,-68 -28,-85 -26,-23 -64,-34 -114,-34 -47,0 -82,9 -104,25 -23,16 -39,46 -50,87l-97 -13c9,-42 23,-76 44,-101 20,-26 49,-46 88,-60 38,-13 83,-20 134,-20 50,0 91,5 122,17 32,12 55,27 70,45 14,18 25,41 31,68 3,17 5,47 5,91l0 133c0,92 2,150 6,175 4,25 12,48 24,71l-104 0c-10,-21 -16,-45 -19,-74zm-8 -220c-36,14 -91,27 -163,37 -41,6 -71,12 -88,20 -16,7 -30,18 -39,32 -9,14 -14,30 -14,47 0,26 10,48 30,66 21,17 50,26 89,26 38,0 72,-8 102,-25 30,-16 52,-39 66,-68 11,-23 16,-56 16,-99l1 -36zm527 64l96 -14c3,63 14,105 35,128 20,23 49,34 85,34 27,0 51,-6 70,-18 19,-12 33,-29 40,-50 8,-22 11,-56 11,-102l0 -559 108 0 0 553c0,67 -8,120 -25,157 -16,37 -42,66 -78,85 -35,20 -77,30 -125,30 -71,0 -125,-21 -163,-62 -38,-41 -56,-101 -54,-182zm992 156c-37,32 -72,54 -107,67 -34,13 -70,20 -110,20 -64,0 -114,-16 -149,-48 -34,-31 -52,-71 -52,-120 0,-29 7,-55 20,-79 13,-24 30,-43 51,-57 22,-14 45,-25 72,-33 20,-5 49,-10 89,-15 80,-9 140,-20 178,-34 0,-13 0,-22 0,-26 0,-40 -9,-68 -28,-85 -26,-23 -63,-34 -114,-34 -47,0 -81,9 -104,25 -22,16 -39,46 -49,87l-98 -13c9,-42 24,-76 44,-101 20,-26 50,-46 88,-60 39,-13 83,-20 134,-20 50,0 91,5 123,17 31,12 54,27 69,45 15,18 25,41 31,68 3,17 5,47 5,91l0 133c0,92 2,150 6,175 4,25 13,48 25,71l-105 0c-10,-21 -16,-45 -19,-74zm-8 -220c-36,14 -90,27 -163,37 -41,6 -70,12 -87,20 -17,7 -30,18 -39,32 -10,14 -14,30 -14,47 0,26 10,48 30,66 20,17 50,26 88,26 39,0 73,-8 103,-25 30,-16 52,-39 66,-68 10,-23 16,-56 16,-99l0 -36zm254 294l0 -588 90 0 0 83c18,-29 43,-52 73,-69 31,-18 66,-26 105,-26 43,0 79,9 107,27 27,18 47,43 58,75 47,-68 108,-102 182,-102 59,0 104,16 135,48 32,32 48,82 48,149l0 403 -100 0 0 -370c0,-40 -3,-68 -10,-86 -6,-18 -18,-31 -35,-42 -17,-11 -37,-16 -60,-16 -41,0 -76,13 -103,41 -27,27 -41,71 -41,132l0 341 -100 0 0 -382c0,-44 -8,-77 -24,-99 -16,-22 -43,-33 -80,-33 -28,0 -54,7 -77,22 -24,15 -41,36 -52,65 -11,28 -16,69 -16,122l0 305 -100 0zm944 -698l0 -113 100 0 0 113 -100 0zm0 698l0 -588 100 0 0 588 -100 0zm252 0l0 -588 89 0 0 84c43,-64 106,-96 187,-96 36,0 68,6 98,19 29,12 52,29 66,50 15,20 25,45 31,73 4,19 6,51 6,97l0 361 -100 0 0 -357c0,-41 -4,-71 -11,-91 -8,-20 -22,-36 -42,-48 -19,-12 -42,-18 -69,-18 -42,0 -79,13 -109,40 -31,27 -47,78 -47,153l0 321 -99 0zm1014 -74c-37,32 -73,54 -107,67 -34,13 -71,20 -110,20 -65,0 -114,-16 -149,-48 -35,-31 -52,-71 -52,-120 0,-29 7,-55 20,-79 13,-24 30,-43 51,-57 21,-14 45,-25 72,-33 20,-5 49,-10 89,-15 80,-9 140,-20 177,-34 1,-13 1,-22 1,-26 0,-40 -9,-68 -28,-85 -26,-23 -64,-34 -114,-34 -47,0 -82,9 -104,25 -22,16 -39,46 -50,87l-97 -13c9,-42 23,-76 44,-101 20,-26 50,-46 88,-60 38,-13 83,-20 134,-20 50,0 91,5 123,17 31,12 54,27 69,45 15,18 25,41 31,68 3,17 5,47 5,91l0 133c0,92 2,150 6,175 4,25 12,48 24,71l-104 0c-10,-21 -16,-45 -19,-74zm-8 -220c-36,14 -91,27 -163,37 -41,6 -70,12 -87,20 -17,7 -30,18 -40,32 -9,14 -14,30 -14,47 0,26 10,48 31,66 20,17 49,26 88,26 38,0 73,-8 103,-25 29,-16 51,-39 65,-68 11,-23 16,-56 16,-99l1 -36zm254 294l0 -588 90 0 0 84c43,-64 105,-96 186,-96 36,0 68,6 98,19 30,12 52,29 67,50 14,20 25,45 31,73 3,19 5,51 5,97l0 361 -100 0 0 -357c0,-41 -3,-71 -11,-91 -8,-20 -22,-36 -41,-48 -20,-12 -43,-18 -70,-18 -42,0 -78,13 -109,40 -31,27 -46,78 -46,153l0 321 -100 0zm922 -260l101 -10c5,41 16,75 34,101 17,26 44,47 81,63 37,16 78,24 125,24 41,0 77,-6 108,-18 31,-12 55,-29 70,-50 15,-22 23,-45 23,-70 0,-25 -8,-47 -22,-66 -15,-19 -39,-35 -73,-48 -22,-8 -70,-21 -145,-39 -74,-18 -126,-35 -156,-51 -39,-20 -68,-46 -87,-76 -19,-30 -28,-64 -28,-101 0,-41 12,-79 35,-115 23,-35 57,-62 102,-81 44,-18 94,-28 148,-28 60,0 113,10 159,29 46,20 82,48 106,86 25,37 38,80 40,128l-103 8c-5,-52 -24,-90 -56,-116 -32,-27 -79,-40 -141,-40 -65,0 -113,12 -142,36 -30,24 -45,53 -45,86 0,29 11,53 32,72 20,19 74,38 161,58 88,20 147,37 180,52 47,21 82,49 104,82 23,33 34,72 34,115 0,43 -12,84 -37,122 -25,38 -60,68 -106,89 -47,21 -99,32 -157,32 -73,0 -134,-11 -184,-32 -49,-22 -88,-54 -116,-97 -28,-43 -43,-91 -45,-145z"/>
   <path class="fil2" d="M17811 20818c0,-109 30,-189 91,-241 51,-44 112,-65 185,-65 81,0 147,26 198,79 51,53 77,126 77,219 0,75 -11,135 -34,178 -23,43 -56,77 -99,101 -43,24 -91,36 -142,36 -82,0 -149,-27 -200,-79 -50,-53 -76,-129 -76,-228zm102 0c0,75 17,132 50,169 33,37 74,56 124,56 49,0 91,-19 124,-56 32,-38 49,-95 49,-172 0,-72 -17,-127 -50,-165 -33,-37 -74,-56 -123,-56 -50,0 -91,19 -124,56 -33,37 -50,93 -50,168zm526 118l99 -15c5,39 21,69 46,90 25,21 61,32 106,32 46,0 80,-9 102,-28 22,-18 33,-40 33,-66 0,-22 -10,-40 -29,-53 -14,-8 -48,-20 -102,-33 -73,-19 -124,-35 -152,-48 -28,-14 -49,-32 -64,-56 -15,-23 -22,-50 -22,-78 0,-27 6,-51 18,-73 12,-22 28,-41 49,-56 15,-11 37,-21 63,-29 27,-7 56,-11 86,-11 46,0 87,6 121,20 35,13 61,31 78,54 16,22 28,53 34,91l-98 14c-4,-31 -17,-55 -38,-72 -21,-17 -51,-26 -90,-26 -45,0 -78,8 -97,23 -20,15 -30,33 -30,53 0,13 4,24 12,35 9,10 21,19 39,26 10,4 39,13 87,26 71,18 120,34 148,46 28,12 50,29 65,52 17,23 24,51 24,85 0,33 -9,64 -29,94 -19,29 -47,52 -83,68 -37,16 -78,24 -125,24 -76,0 -134,-16 -174,-48 -40,-32 -66,-78 -77,-141zm606 -522l0 -113 100 0 0 113 -100 0zm0 698l0 -588 100 0 0 588 -100 0zm636 -74c-37,32 -73,54 -107,67 -34,13 -71,20 -110,20 -64,0 -114,-16 -149,-48 -35,-31 -52,-71 -52,-120 0,-29 7,-55 20,-79 13,-24 30,-43 51,-57 22,-14 45,-25 72,-33 20,-5 49,-10 89,-15 80,-9 140,-20 178,-34 0,-13 0,-22 0,-26 0,-40 -9,-68 -28,-85 -26,-23 -64,-34 -114,-34 -47,0 -82,9 -104,25 -22,16 -39,46 -50,87l-97 -13c9,-42 23,-76 44,-101 20,-26 50,-46 88,-60 39,-13 83,-20 134,-20 50,0 91,5 123,17 31,12 54,27 69,45 15,18 25,41 31,68 3,17 5,47 5,91l0 133c0,92 2,150 6,175 4,25 12,48 25,71l-105 0c-10,-21 -16,-45 -19,-74zm-8 -220c-36,14 -90,27 -163,37 -41,6 -70,12 -87,20 -17,7 -30,18 -40,32 -9,14 -13,30 -13,47 0,26 10,48 30,66 20,17 49,26 88,26 38,0 73,-8 103,-25 29,-16 52,-39 66,-68 10,-23 16,-56 16,-99l0 -36zm252 294l0 -811 100 0 0 811 -100 0z"/>
  </g>
 </g>
</svg>
